<svg width="50" height="50" viewBox="0 0 50 50" fill="none" xmlns="http://www.w3.org/2000/svg">
<g clip-path="url(#clip0_8_3)">
<path d="M55 -5H-5V55H55V-5Z" fill="#4D6A6D"/>
<path d="M55 -5H-5V55H55V-5Z" fill="#4D6A6D"/>
<path d="M55 -5H-5V55H55V-5Z" fill="#4D6A6D"/>
<mask id="mask0_8_3" style="mask-type:luminance" maskUnits="userSpaceOnUse" x="9" y="9" width="32" height="22">
<path d="M9.38281 9.38281H40.5828V30.9333H9.38281V9.38281Z" fill="white"/>
</mask>
<g mask="url(#mask0_8_3)">
<path d="M10.1754 29.5125C10.2494 29.4557 10.327 29.4026 10.4056 29.3468C10.4838 29.2906 10.5655 29.2375 10.6494 29.1833C10.7322 29.1276 10.8192 29.0771 10.9072 29.0239C10.9291 29.0104 10.951 28.9968 10.9733 28.9838C10.9957 28.9708 11.0181 28.9583 11.0411 28.9453C11.0864 28.9198 11.1322 28.8942 11.1786 28.8682C11.2244 28.8422 11.2718 28.8177 11.3197 28.7932C11.3671 28.7687 11.4155 28.7442 11.464 28.7192C11.5124 28.6942 11.5619 28.6718 11.6119 28.6479C11.6614 28.6239 11.7119 28.6 11.7629 28.5765C11.814 28.5547 11.8655 28.5323 11.9171 28.5093C11.9692 28.4875 12.0213 28.4635 12.0749 28.4432C12.1812 28.401 12.2885 28.3557 12.3994 28.3177C12.4546 28.2979 12.5103 28.2781 12.5661 28.2578C12.6223 28.2396 12.6791 28.2208 12.7364 28.2021C13.1931 28.0526 13.6812 27.9338 14.1937 27.8489C14.3218 27.826 14.451 27.8088 14.5822 27.7906C14.6473 27.7823 14.7135 27.7755 14.7796 27.7682C14.8457 27.7609 14.9124 27.7526 14.9791 27.7474C15.0457 27.7416 15.1129 27.7359 15.1801 27.7302C15.2478 27.7244 15.3155 27.7213 15.3832 27.7172C15.5197 27.7088 15.6567 27.7057 15.7947 27.7015C15.9291 27.701 16.064 27.7005 16.2004 27.7C16.2327 27.7 16.265 27.7 16.2973 27.7C16.3301 27.7 16.3614 27.7 16.3983 27.7021C16.4702 27.7047 16.5421 27.7078 16.614 27.7104C16.6858 27.7135 16.7582 27.7161 16.8312 27.7198C16.8671 27.7213 16.9046 27.7218 16.9395 27.725C16.9744 27.7276 17.0093 27.7297 17.0447 27.7323C17.1848 27.7437 17.326 27.7547 17.4681 27.7656C17.6093 27.7812 17.751 27.7963 17.8937 27.8114C17.9291 27.8156 17.965 27.8198 18.0004 27.8239C18.0364 27.8286 18.0718 27.8338 18.1072 27.8385C18.178 27.8484 18.2494 27.8583 18.3207 27.8687C18.3921 27.8791 18.4635 27.889 18.5353 27.8995C18.6062 27.9114 18.6775 27.9229 18.7489 27.9349C18.8916 27.9583 19.0364 27.9812 19.178 28.0104C19.7515 28.1161 20.3228 28.2474 20.8931 28.3922C21.4629 28.5369 22.0312 28.6963 22.5952 28.8609C23.1598 29.0265 23.7202 29.1948 24.2786 29.3614C24.8348 29.5271 25.3916 29.6869 25.9468 29.8396C27.0572 30.1437 28.1635 30.4083 29.251 30.5979C30.3385 30.7875 31.4072 30.8974 32.4369 30.9067C32.6942 30.9062 32.9494 30.9052 33.2015 30.8932C33.3275 30.889 33.452 30.8797 33.577 30.8718L33.6239 30.8692L33.6353 30.8682C33.6088 30.8724 33.6353 30.8687 33.6322 30.8698L33.6577 30.8672C33.6911 30.864 33.7249 30.8609 33.7582 30.8583C33.7916 30.8557 33.8254 30.8526 33.8588 30.8494L33.9088 30.8448C33.926 30.8432 33.9431 30.8422 33.9562 30.8401C34.0135 30.8338 34.0707 30.8276 34.1275 30.8213C34.1562 30.8182 34.1848 30.8151 34.2135 30.8119C34.2431 30.8078 34.2728 30.8036 34.3025 30.7994C34.3624 30.7911 34.4218 30.7828 34.4817 30.775C34.5411 30.7672 34.5999 30.7557 34.6593 30.7468C34.7181 30.7364 34.7775 30.7281 34.8358 30.7172C34.8947 30.7057 34.953 30.6948 35.0114 30.6833C35.128 30.6619 35.2426 30.6354 35.3577 30.6109C35.4155 30.5994 35.4723 30.5849 35.5291 30.5708C35.5858 30.5573 35.6426 30.5432 35.6989 30.5297C35.8109 30.4989 35.9228 30.4692 36.0327 30.4396C36.0879 30.4229 36.1426 30.4062 36.1973 30.3901C36.2515 30.3734 36.3067 30.3588 36.3603 30.3406C36.414 30.3229 36.4671 30.3052 36.5207 30.2875C36.5744 30.2703 36.6275 30.2536 36.6796 30.2343C37.101 30.088 37.501 29.9234 37.876 29.7448C38.2515 29.5656 38.602 29.3729 38.926 29.1713C39.2499 28.9703 39.5437 28.7573 39.8114 28.5442C39.878 28.4906 39.9452 28.4385 40.0067 28.3828C40.0692 28.3286 40.1322 28.276 40.1921 28.2224C40.2145 28.201 40.2374 28.1802 40.2598 28.1593C40.4718 27.1333 40.5838 26.0713 40.5838 24.9828C40.5838 16.3666 33.5989 9.38226 24.9827 9.38226C16.3666 9.38226 9.3822 16.3666 9.3822 24.9828C9.3822 26.587 9.62439 28.1338 10.0739 29.5901C10.1072 29.5646 10.1416 29.539 10.1754 29.5125Z" fill="#FAB60E"/>
</g>
<mask id="mask1_8_3" style="mask-type:luminance" maskUnits="userSpaceOnUse" x="12" y="34" width="23" height="7">
<path d="M12.8 34.8H34.5333V40.5828H12.8V34.8Z" fill="white"/>
</mask>
<g mask="url(#mask1_8_3)">
<path d="M33.7042 37.6967C33.6396 37.7201 33.5745 37.7436 33.5088 37.767C33.476 37.7785 33.4437 37.791 33.4104 37.8014C33.3776 37.8123 33.3437 37.8232 33.3109 37.8337C33.2443 37.8555 33.1771 37.8769 33.1099 37.8988C33.0427 37.9196 32.9745 37.9389 32.9062 37.9592C32.838 37.9785 32.7703 37.9998 32.7005 38.0175C32.6312 38.0357 32.562 38.054 32.4922 38.0717C32.4568 38.0805 32.4213 38.0894 32.3864 38.0988C32.3495 38.1066 32.313 38.1149 32.2755 38.1232C32.2015 38.1394 32.1271 38.1561 32.0526 38.1727C32.0328 38.1769 32.0172 38.18 32.0005 38.1837L31.9515 38.193C31.9187 38.1998 31.8854 38.2061 31.8526 38.2128C31.8193 38.2191 31.7864 38.2264 31.7536 38.2326L31.7286 38.2378C31.7177 38.2394 31.7354 38.2373 31.7005 38.242L31.6875 38.2446L31.6333 38.2535C31.489 38.2769 31.3448 38.3019 31.1984 38.3206C30.9073 38.3628 30.612 38.3936 30.3135 38.4175C29.1208 38.5107 27.888 38.4597 26.6677 38.2977C25.4469 38.1363 24.237 37.8691 23.0609 37.5467C22.4724 37.3847 21.8917 37.2102 21.3193 37.0274C20.7489 36.8446 20.1885 36.6555 19.6396 36.4701C19.0901 36.2842 18.5515 36.1029 18.0219 35.9321C17.8896 35.8894 17.7578 35.8451 17.6265 35.8055C17.4953 35.766 17.3646 35.7227 17.2344 35.6842C17.1047 35.6456 16.975 35.6066 16.8458 35.568C16.7172 35.5311 16.5885 35.4951 16.4609 35.4587L16.3651 35.4321C16.3333 35.4227 16.301 35.4149 16.2693 35.4066C16.2057 35.3899 16.1422 35.3732 16.0792 35.3566C16.0156 35.3394 15.9526 35.3227 15.8896 35.3061C15.8265 35.291 15.7635 35.2759 15.7005 35.2607C15.638 35.2456 15.5755 35.2305 15.5125 35.2154C15.4818 35.2081 15.45 35.2003 15.4193 35.193C15.388 35.1863 15.3568 35.1795 15.3255 35.1727C15.201 35.1451 15.0776 35.118 14.9547 35.0915C14.8312 35.068 14.7083 35.0451 14.5864 35.0217C14.5562 35.016 14.5255 35.0102 14.4953 35.004C14.4646 34.9982 14.437 34.9941 14.4073 34.9889C14.3489 34.9795 14.2906 34.9696 14.2328 34.9607C14.1745 34.9509 14.1167 34.941 14.0588 34.9311C14.0318 34.9264 13.9984 34.9227 13.9661 34.9186C13.9338 34.9144 13.9015 34.9107 13.8698 34.9066C13.8052 34.8988 13.7417 34.8904 13.6776 34.8826C13.6458 34.8785 13.614 34.8743 13.5823 34.8701L13.5349 34.8644L13.5229 34.8628C13.5151 34.8618 13.5484 34.8634 13.5292 34.8623L13.5073 34.8602C13.3906 34.8482 13.275 34.8347 13.1599 34.8274C13.1021 34.8232 13.0448 34.817 12.9875 34.8139C12.9458 34.8113 12.9047 34.8087 12.8635 34.8066C15.7234 38.3305 20.0901 40.5837 24.9828 40.5837C28.5297 40.5837 31.7995 39.3998 34.4198 37.4061C34.188 37.5092 33.9495 37.6066 33.7042 37.6967Z" fill="#989B6D"/>
</g>
<path d="M39.6927 30.1453C39.3792 30.4448 39.0276 30.738 38.6406 31.0172C38.2536 31.2958 37.8307 31.5609 37.3755 31.8036C36.9198 32.0458 36.4323 32.2677 35.9146 32.4573C35.85 32.4807 35.7849 32.5041 35.7193 32.5281C35.6864 32.539 35.6542 32.5515 35.6208 32.563C35.588 32.5734 35.5547 32.5844 35.5208 32.5948C35.4547 32.6161 35.3875 32.638 35.3203 32.6594C35.2531 32.6807 35.1849 32.6995 35.1167 32.7198C35.0484 32.739 34.9807 32.7609 34.9109 32.7786C34.8417 32.7969 34.7719 32.8146 34.7021 32.8328C34.6672 32.8416 34.6318 32.8505 34.5969 32.8594C34.5599 32.8677 34.5229 32.876 34.4859 32.8844C34.412 32.9005 34.3375 32.9172 34.263 32.9338C34.2432 32.938 34.2276 32.9411 34.2109 32.9443L34.1614 32.9541C34.1286 32.9609 34.0958 32.9672 34.0625 32.9739C34.0297 32.9807 33.9969 32.987 33.9635 32.9937L33.939 32.9984C33.9276 33.0005 33.9458 32.9984 33.9109 33.0031L33.8979 33.0052L33.8437 33.0146C33.6995 33.038 33.5552 33.0625 33.4088 33.0818C33.1177 33.1239 32.8224 33.1541 32.5239 33.1781C31.3307 33.2713 30.0979 33.2208 28.8781 33.0588C27.6573 32.8974 26.4474 32.6302 25.2713 32.3073C24.6828 32.1458 24.1021 31.9708 23.5297 31.788C22.9594 31.6052 22.3989 31.4166 21.85 31.2307C21.3005 31.0448 20.762 30.864 20.2323 30.6927C20.1 30.6505 19.9682 30.6062 19.837 30.5666C19.7057 30.5265 19.575 30.4838 19.4448 30.4453C19.3151 30.4062 19.1854 30.3672 19.0562 30.3286C18.9276 30.2922 18.7989 30.2557 18.6713 30.2193L18.5755 30.1927C18.5437 30.1838 18.5114 30.176 18.4797 30.1677C18.4161 30.151 18.3526 30.1344 18.2896 30.1177C18.226 30.1005 18.163 30.0838 18.1 30.0672C18.037 30.0515 17.9739 30.0364 17.9109 30.0213C17.8484 30.0068 17.7854 29.9916 17.7229 29.976C17.6917 29.9687 17.6604 29.9609 17.6292 29.9536C17.5984 29.9474 17.5672 29.9401 17.5359 29.9338C17.4114 29.9062 17.288 29.8791 17.1646 29.8521C17.0417 29.8291 16.9187 29.8057 16.7969 29.7828C16.7667 29.7771 16.7359 29.7708 16.7057 29.7651C16.675 29.7588 16.6469 29.7552 16.6177 29.75C16.5594 29.7406 16.501 29.7307 16.4432 29.7213C16.3849 29.7114 16.3271 29.7015 16.2693 29.6922C16.2417 29.687 16.2088 29.6833 16.1765 29.6791C16.1443 29.6755 16.112 29.6719 16.0802 29.6677C16.0156 29.6594 15.9521 29.6515 15.888 29.6432C15.8562 29.6396 15.8245 29.6354 15.7927 29.6312L15.7448 29.625L15.7333 29.6234C15.7255 29.6224 15.7588 29.6245 15.7396 29.6234L15.7177 29.6208C15.601 29.6094 15.4854 29.5958 15.3698 29.588C15.3125 29.5838 15.2547 29.5781 15.1974 29.5745C15.1401 29.5713 15.0833 29.5677 15.0265 29.5646C14.9693 29.5604 14.9125 29.5594 14.8562 29.5573C14.7995 29.5557 14.7432 29.5531 14.687 29.5521C14.575 29.5521 14.463 29.5474 14.3526 29.55C14.2974 29.5505 14.2422 29.5515 14.1875 29.5521C14.1323 29.5547 14.0781 29.5568 14.0234 29.5583C13.9963 29.5594 13.9693 29.5604 13.9422 29.5614C13.9151 29.563 13.888 29.5646 13.8614 29.5661C13.8073 29.5693 13.7536 29.5729 13.7005 29.5755C13.6469 29.5791 13.5943 29.5844 13.5411 29.5885C13.488 29.5932 13.4354 29.5969 13.3833 29.6036C13.2792 29.6161 13.175 29.6255 13.0734 29.6406C12.6646 29.6958 12.2739 29.7724 11.9073 29.8703C11.7245 29.9198 11.5463 29.9724 11.375 30.0291C11.2896 30.0588 11.2042 30.0859 11.1224 30.1177C11.0401 30.1489 10.9573 30.1771 10.8786 30.2109C10.7995 30.2432 10.7203 30.2734 10.6453 30.3083C10.5693 30.3422 10.4932 30.3734 10.4208 30.4088C10.401 30.4182 10.3818 30.4276 10.3625 30.437C10.7167 31.3859 11.1604 32.2911 11.6838 33.1427C11.7828 33.1229 11.8823 33.1052 11.9833 33.088C12.1114 33.0651 12.2406 33.0484 12.3719 33.0302C12.4375 33.0213 12.5031 33.0151 12.5693 33.0073C12.6354 33 12.7021 32.9922 12.7687 32.987C12.8354 32.9812 12.9026 32.975 12.9703 32.9693C13.0375 32.9635 13.1052 32.9609 13.1729 32.9568C13.3094 32.9479 13.4458 32.9453 13.5844 32.9411C13.7187 32.9401 13.8542 32.9401 13.9901 32.939C14.0224 32.939 14.0547 32.9396 14.087 32.9396C14.1198 32.9396 14.151 32.939 14.1885 32.9411C14.2599 32.9437 14.3318 32.9469 14.4036 32.9495C14.476 32.9526 14.5479 32.9557 14.6208 32.9588C14.6568 32.9609 14.6943 32.9614 14.7292 32.964C14.7641 32.9666 14.7989 32.9693 14.8344 32.9713C14.9745 32.9823 15.1156 32.9937 15.2578 33.0052C15.3989 33.0203 15.5406 33.0354 15.6833 33.051C15.7193 33.0552 15.7547 33.0588 15.7906 33.063C15.8255 33.0682 15.8614 33.0729 15.8969 33.0776C15.9677 33.088 16.0391 33.0979 16.1104 33.1078C16.1818 33.1182 16.2531 33.1286 16.325 33.1385C16.3963 33.1505 16.4672 33.1625 16.5391 33.1739C16.6812 33.1979 16.826 33.2208 16.9677 33.2495C17.5411 33.3552 18.1125 33.487 18.6828 33.6312C19.2526 33.776 19.8213 33.9354 20.3849 34.1005C20.9495 34.2651 21.5099 34.4344 22.0682 34.6005C22.6245 34.7661 23.1812 34.9265 23.7364 35.0786C24.8469 35.3833 25.9531 35.6479 27.0406 35.8375C31.2651 36.5745 37.0963 36.0354 39.15 31.5854C39.3693 31.1104 39.5448 30.6156 39.7172 30.1213C39.7088 30.1297 39.7015 30.1375 39.6927 30.1453Z" fill="#5E9BA8"/>
</g>
<defs>
<clipPath id="clip0_8_3">
<rect width="50" height="50" fill="white"/>
</clipPath>
</defs>
</svg>
